<svg height="800" node-id="1" sillyvg="true" template-height="800" template-width="800" version="1.1" viewBox="0 0 800 800" width="800" xmlns="http://www.w3.org/2000/svg" xmlns:xlink="http://www.w3.org/1999/xlink"><defs node-id="87"></defs><g node-id="287"><g node-id="288"><g node-id="290"><g node-id="314"><path d="M 685.42 166.43 C 685.42 177.35 676.56 186.21 665.64 186.21 C 654.72 186.21 645.86 177.35 645.86 166.43 C 645.86 155.51 654.72 146.65 665.64 146.65 C 676.56 146.65 685.42 155.51 685.42 166.43 Z" fill="#f3f3f3" fill-rule="nonzero" group-id="1,2,4,28" node-id="98" stroke="none" target-height="39.560013" target-width="39.559998" target-x="645.86" target-y="146.65"></path></g></g><g node-id="291"><g node-id="315"><path d="M 117.30 618.23 C 117.30 629.15 108.44 638.01 97.52 638.01 C 86.60 638.01 77.74 629.15 77.74 618.23 C 77.74 607.31 86.60 598.45 97.52 598.45 C 108.44 598.45 117.30 607.31 117.30 618.23 Z" fill="#f3f3f3" fill-rule="nonzero" group-id="1,2,5,29" node-id="106" stroke="none" target-height="39.559998" target-width="39.560005" target-x="77.74" target-y="598.45"></path></g></g><g node-id="292"><g node-id="316"><path d="M 218.65 680.23 C 211.27 680.23 205.27 674.23 205.27 666.85 C 205.27 659.47 211.27 653.47 218.65 653.47 C 226.03 653.47 232.03 659.47 232.03 666.85 C 232.03 674.23 226.02 680.23 218.65 680.23 Z M 218.65 659.90 C 214.82 659.90 211.70 663.02 211.70 666.85 C 211.70 670.68 214.82 673.80 218.65 673.80 C 222.48 673.80 225.60 670.68 225.60 666.85 C 225.60 663.02 222.48 659.90 218.65 659.90 Z" fill="#f3f3f3" fill-rule="nonzero" group-id="1,2,6,30" node-id="114" stroke="none" target-height="26.76001" target-width="26.759995" target-x="205.27" target-y="653.47"></path></g></g><g node-id="293"><g node-id="317"><path d="M 597.08 107.09 L 577.10 107.09 L 577.10 87.11 C 577.10 83.45 574.14 80.49 570.48 80.49 C 566.82 80.49 563.86 83.45 563.86 87.11 L 563.86 107.09 L 543.88 107.09 C 540.22 107.09 537.26 110.05 537.26 113.71 C 537.26 117.37 540.22 120.33 543.88 120.33 L 563.86 120.33 L 563.86 140.31 C 563.86 143.97 566.82 146.93 570.48 146.93 C 574.14 146.93 577.10 143.97 577.10 140.31 L 577.10 120.33 L 597.08 120.33 C 600.74 120.33 603.70 117.37 603.70 113.71 C 603.70 110.05 600.73 107.09 597.08 107.09 Z" fill="#f3f3f3" fill-rule="nonzero" group-id="1,2,7,31" node-id="122" stroke="none" target-height="66.439995" target-width="66.44" target-x="537.26" target-y="80.49"></path></g></g><g node-id="294"><g node-id="318"><path d="M 654.66 684.12 L 639.82 684.12 L 639.82 669.28 C 639.82 666.24 637.35 663.77 634.31 663.77 C 631.27 663.77 628.80 666.24 628.80 669.28 L 628.80 684.12 L 613.96 684.12 C 610.92 684.12 608.45 686.59 608.45 689.63 C 608.45 692.67 610.92 695.14 613.96 695.14 L 628.80 695.14 L 628.80 709.98 C 628.80 713.02 631.27 715.49 634.31 715.49 C 637.35 715.49 639.82 713.02 639.82 709.98 L 639.82 695.14 L 654.66 695.14 C 657.70 695.14 660.17 692.67 660.17 689.63 C 660.17 686.59 657.70 684.12 654.66 684.12 Z" fill="#f3f3f3" fill-rule="nonzero" group-id="1,2,8,32" node-id="130" stroke="none" target-height="51.71997" target-width="51.71997" target-x="608.45" target-y="663.77"></path></g></g><g node-id="295"><g node-id="319"><path d="M 119.59 122.53 C 128.29 131.23 142.41 131.23 151.11 122.53 L 151.11 122.53 C 159.81 113.83 159.81 99.71 151.11 91.01 L 144.45 84.35 C 135.75 75.65 121.63 75.65 112.93 84.35 L 112.93 84.35 C 104.23 93.05 104.23 107.17 112.93 115.87 L 119.59 122.53 Z" fill="#f3f3f3" fill-rule="nonzero" group-id="1,2,9,33" node-id="138" stroke="none" target-height="55.579994" target-width="55.579994" target-x="104.23" target-y="75.65"></path></g></g><g node-id="296"><g node-id="320"><path d="M 234.31 114.47 C 238.28 118.44 244.72 118.44 248.69 114.47 C 252.66 110.50 252.66 104.06 248.69 100.09 L 238.68 90.08 C 234.71 86.11 228.27 86.11 224.30 90.08 C 220.33 94.05 220.33 100.49 224.30 104.46 L 234.31 114.47 Z" fill="#f3f3f3" fill-rule="nonzero" group-id="1,2,10,34" node-id="146" stroke="none" target-height="32.33" target-width="32.33" target-x="220.33" target-y="86.11"></path></g></g><g node-id="297"><g node-id="321"><path d="M 83.24 315.20 C 87.21 319.17 93.65 319.17 97.62 315.20 L 97.62 315.20 C 101.59 311.23 101.59 304.79 97.62 300.82 L 87.61 290.80 C 83.64 286.83 77.20 286.83 73.23 290.80 C 69.26 294.77 69.26 301.21 73.23 305.18 L 83.24 315.20 Z" fill="#f3f3f3" fill-rule="nonzero" group-id="1,2,11,35" node-id="154" stroke="none" target-height="32.340027" target-width="32.329994" target-x="69.26" target-y="286.83"></path></g></g><g node-id="298"><g node-id="322"><path d="M 611.20 622.66 C 607.23 618.69 600.79 618.69 596.82 622.66 C 592.85 626.63 592.85 633.07 596.82 637.04 L 606.83 647.05 C 610.80 651.02 617.24 651.02 621.21 647.05 C 625.18 643.08 625.18 636.64 621.21 632.67 L 611.20 622.66 Z" fill="#f3f3f3" fill-rule="nonzero" group-id="1,2,12,36" node-id="162" stroke="none" target-height="32.330017" target-width="32.330017" target-x="592.85" target-y="618.69"></path></g></g><g node-id="299"><g node-id="323"><path d="M 731.59 631.15 C 731.59 649.25 716.92 663.92 698.82 663.92 C 680.72 663.92 666.05 649.25 666.05 631.15 C 666.05 613.05 680.72 598.38 698.82 598.38 C 716.92 598.38 731.59 613.05 731.59 631.15 Z" fill="#f3f3f3" fill-rule="nonzero" group-id="1,2,13,37" node-id="170" stroke="none" target-height="65.53998" target-width="65.54004" target-x="666.05" target-y="598.38"></path></g></g><g node-id="300"><g node-id="324"><path d="M 699.47 479.19 L 667.96 447.68 L 647.99 426.41 C 642.82 420.98 642.75 412.47 647.83 406.95 L 647.83 406.95 C 653.38 400.92 662.87 400.81 668.55 406.72 L 672.59 411.13 L 681.91 420.45 C 687.32 425.86 696.20 426.27 701.71 420.96 C 707.32 415.55 707.39 406.61 701.90 401.12 L 683.27 382.49 C 676.39 375.61 671.91 366.67 670.61 357.03 C 652.39 221.64 536.41 117.24 396.03 117.24 C 391.24 117.24 386.48 117.37 381.75 117.61 C 376.64 117.87 371.65 116.00 368.04 112.38 L 348.90 93.24 C 340.35 84.69 326.43 84.06 317.58 92.30 C 308.29 100.95 308.10 115.49 316.99 124.39 L 320.33 127.73 L 330.74 138.67 C 337.28 145.59 336.31 156.67 328.66 162.35 C 322.15 167.18 313.98 165.61 308.47 159.66 L 287.78 139.20 L 269.74 121.16 C 265.91 117.33 259.68 116.88 255.61 120.45 C 251.15 124.37 250.99 131.16 255.12 135.29 L 268.26 148.43 L 276.82 156.67 C 285.52 165.19 285.71 178.47 277.06 187.03 L 277.06 187.03 C 268.47 195.52 254.61 195.41 246.17 186.77 L 231.43 171.44 L 196.12 136.13 C 187.42 127.43 173.30 127.43 164.60 136.13 L 164.60 136.13 C 155.90 144.83 155.90 158.95 164.60 167.65 L 190.21 193.34 L 199.19 201.72 C 207.68 210.15 207.88 223.81 199.64 232.48 L 199.64 232.48 C 190.82 241.77 175.95 241.59 167.36 232.08 L 162.40 226.64 L 147.04 211.20 C 134.42 198.58 113.84 197.80 100.88 210.08 C 87.43 222.81 87.21 244.05 100.22 257.06 L 137.56 294.39 L 155.36 311.98 C 162.07 318.62 161.86 329.53 154.90 335.91 L 154.90 335.91 C 148.32 341.94 138.14 341.66 131.91 335.28 L 126.56 329.73 L 118.45 321.62 C 114.48 317.65 108.04 317.65 104.07 321.62 L 104.07 321.62 C 99.01 325.82 100.38 332.31 104.13 336.06 L 121.92 353.85 L 158.91 389.94 C 165.29 396.16 165.32 406.41 158.99 412.67 L 158.99 412.67 C 152.81 418.78 142.87 418.82 136.65 412.75 L 118.98 395.51 L 93.00 369.56 C 87.59 364.15 78.71 363.74 73.20 369.05 C 67.59 374.46 67.52 383.40 73.01 388.89 L 116.90 432.78 C 120.45 436.33 122.81 440.89 123.74 445.83 C 147.23 570.76 254.54 666.10 385.04 671.19 C 392.24 671.47 399.10 674.35 404.32 679.33 C 412.78 687.41 424.59 698.67 424.59 698.67 C 433.14 707.22 447.06 707.85 455.91 699.61 C 465.20 690.96 465.39 676.42 456.50 667.52 L 454.24 665.26 L 444.43 655.02 C 438.84 648.96 439.40 639.47 445.66 634.10 L 445.66 634.10 C 451.59 629.02 460.47 629.52 465.79 635.23 L 486.01 656.45 L 508.03 678.47 C 516.93 687.36 531.47 687.17 540.12 677.89 C 548.36 669.05 547.72 655.12 539.18 646.57 L 529.68 637.07 C 529.68 637.07 526.66 633.96 522.79 629.98 C 513.76 620.70 514.08 605.82 523.49 596.93 L 523.97 596.48 C 532.99 587.96 547.12 588.05 556.04 596.68 L 569.86 610.06 L 575.77 615.97 C 579.60 619.80 585.84 620.25 589.90 616.68 C 594.36 612.76 594.52 605.97 590.39 601.84 L 585.24 596.69 C 584.30 597.13 564.41 576.65 552.61 564.37 C 547.86 559.43 548.05 551.58 553.02 546.87 L 553.02 546.87 C 557.97 542.18 565.79 542.40 570.47 547.35 L 601.50 580.17 L 615.65 594.32 C 628.27 606.94 648.84 607.72 661.81 595.45 C 675.26 582.72 675.48 561.48 662.47 548.47 L 639.90 525.90 L 628.50 513.47 C 622.93 507.45 623.18 498.09 629.06 492.37 L 629.06 492.37 C 635.17 486.43 644.98 486.73 650.73 493.02 L 653.65 496.42 L 668.29 511.07 C 677.19 519.97 691.73 519.77 700.38 510.49 C 708.65 501.66 708.02 487.74 699.47 479.19 Z" fill="#f3f3f3" fill-rule="nonzero" group-id="1,2,14,38" node-id="178" stroke="none" target-height="623.79" target-width="641.13" target-x="67.52" target-y="84.06"></path></g></g><g node-id="301"><g node-id="325"><path d="M 426.96 198.22 L 412.12 198.22 L 412.12 183.38 C 412.12 180.34 409.65 177.87 406.61 177.87 C 403.57 177.87 401.10 180.34 401.10 183.38 L 401.10 198.22 L 386.26 198.22 C 383.22 198.22 380.75 200.69 380.75 203.73 C 380.75 206.77 383.22 209.24 386.26 209.24 L 401.10 209.24 L 401.10 224.08 C 401.10 227.12 403.57 229.59 406.61 229.59 C 409.65 229.59 412.12 227.12 412.12 224.08 L 412.12 209.24 L 426.96 209.24 C 430.00 209.24 432.47 206.77 432.47 203.73 C 432.47 200.69 430.00 198.22 426.96 198.22 Z" fill="#ffffff" fill-rule="nonzero" group-id="1,2,15,39" node-id="186" stroke="none" target-height="51.72" target-width="51.72" target-x="380.75" target-y="177.87"></path></g></g><g node-id="302"><g node-id="326"><path d="M 582.72 416.76 C 575.34 416.76 569.34 410.76 569.34 403.38 C 569.34 396.00 575.34 390.00 582.72 390.00 C 590.10 390.00 596.10 396.00 596.10 403.38 C 596.10 410.76 590.09 416.76 582.72 416.76 Z M 582.72 396.42 C 578.89 396.42 575.77 399.54 575.77 403.37 C 575.77 407.20 578.89 410.32 582.72 410.32 C 586.55 410.32 589.67 407.20 589.67 403.37 C 589.67 399.54 586.55 396.42 582.72 396.42 Z" fill="#ffffff" fill-rule="nonzero" group-id="1,2,16,40" node-id="194" stroke="none" target-height="26.76001" target-width="26.759949" target-x="569.34" target-y="390"></path></g></g><path d="M 220.07 518.79 C 212.69 518.79 206.69 512.79 206.69 505.41 C 206.69 498.03 212.69 492.03 220.07 492.03 C 227.45 492.03 233.45 498.03 233.45 505.41 C 233.45 512.79 227.44 518.79 220.07 518.79 Z M 220.07 498.46 C 216.24 498.46 213.12 501.58 213.12 505.41 C 213.12 509.24 216.24 512.36 220.07 512.36 C 223.90 512.36 227.02 509.24 227.02 505.41 C 227.02 501.58 223.90 498.46 220.07 498.46 Z" fill="#ffffff" fill-rule="nonzero" group-id="1,2,17,41" node-id="202" stroke="none" target-height="26.75998" target-width="26.759995" target-x="206.69" target-y="492.03"></path></g><g node-id="289"><g node-id="304"><g node-id="328"><path d="M 279.49 406.02 L 258.57 406.02 L 258.57 362.94 L 212.62 362.94 L 212.62 406.02 L 172.49 406.02 L 234.41 273.56 L 184.31 272.15 L 123.02 404.22 L 123.02 406.02 L 122.99 406.02 L 122.99 459.21 L 212.62 459.21 L 212.62 488.58 L 258.57 488.58 L 258.57 459.21 L 279.49 459.21 Z" fill="#ffffff" fill-rule="nonzero" group-id="1,3,18,42" node-id="213" stroke="none" target-height="216.43" target-width="156.5" target-x="122.99" target-y="272.15"></path></g></g><g node-id="305"><g node-id="329"><path d="M 676.76 406.02 L 655.83 406.02 L 655.83 362.94 L 609.89 362.94 L 609.89 406.02 L 569.75 406.02 L 631.68 273.56 L 581.57 272.15 L 520.29 404.22 L 520.29 406.02 L 520.26 406.02 L 520.26 459.21 L 609.89 459.21 L 609.89 488.58 L 655.83 488.58 L 655.83 459.21 L 676.76 459.21 Z" fill="#ffffff" fill-rule="nonzero" group-id="1,3,19,43" node-id="221" stroke="none" target-height="216.43" target-width="156.5" target-x="520.26" target-y="272.15"></path></g></g><g node-id="306"><g node-id="330"><path d="M 464.04 268.17 L 452.76 297.57 L 412.32 321.97 L 407.77 360.97 L 389.59 377.96 L 403.47 398.06 L 400.84 421.03 L 388.16 438.97 L 395.58 415.04 L 394.62 399.97 L 367.82 377.72 L 384.81 352.84 L 367.82 308.58 L 380.98 290.64 C 380.98 290.64 372.09 269.89 366.34 256.09 C 310.97 271.06 270.24 321.64 270.24 381.74 C 270.24 453.63 328.51 511.90 400.40 511.90 C 472.29 511.90 530.56 453.63 530.56 381.74 C 530.56 332.96 503.73 290.46 464.04 268.17 Z" fill="#ffffff" fill-rule="nonzero" group-id="1,3,20,44" node-id="229" stroke="none" target-height="255.81" target-width="260.32" target-x="270.24" target-y="256.09"></path></g></g><g node-id="307"><g node-id="331"><path d="M 400.40 514.89 C 326.98 514.89 267.24 455.15 267.24 381.73 C 267.24 321.70 307.67 268.84 365.56 253.18 L 368.10 252.49 L 369.11 254.92 C 374.78 268.54 383.65 289.23 383.74 289.44 L 384.41 291.01 L 371.21 309.02 L 388.17 353.22 L 371.84 377.15 L 397.53 398.48 L 398.55 414.61 L 400.36 398.83 L 385.65 377.53 L 404.92 359.53 L 409.51 320.16 L 450.32 295.53 L 462.48 263.86 L 465.51 265.56 C 507.49 289.14 533.56 333.65 533.56 381.73 C 533.56 455.15 473.82 514.89 400.40 514.89 Z M 364.60 259.68 C 310.68 275.46 273.24 325.27 273.24 381.72 C 273.24 451.84 330.28 508.88 400.40 508.88 C 470.52 508.88 527.56 451.84 527.56 381.72 C 527.56 336.96 503.90 295.44 465.58 272.52 L 455.19 299.59 L 415.13 323.77 L 410.63 362.40 L 393.53 378.37 L 406.58 397.27 L 403.73 422.12 L 379.69 456.14 L 392.54 414.67 L 391.70 401.44 L 363.80 378.27 L 381.44 352.43 L 364.43 308.11 L 377.55 290.23 C 375.51 285.48 369.29 270.92 364.60 259.68 Z M 398.38 416.12 L 396.62 421.79 L 397.94 419.92 L 398.38 416.12 Z" fill="#838383" fill-rule="nonzero" group-id="1,3,21,45" node-id="237" stroke="none" target-height="262.40002" target-width="266.32" target-x="267.24" target-y="252.49"></path></g></g><g node-id="308"><g node-id="332"><path d="M 261.57 491.58 L 209.62 491.58 L 209.62 462.21 L 119.99 462.21 L 119.99 403.02 L 120.27 403.02 L 120.30 402.95 L 182.41 269.09 L 239.06 270.68 L 177.20 403.02 L 209.62 403.02 L 209.62 359.94 L 261.57 359.94 L 261.57 403.02 L 275.00 403.02 L 275.46 405.46 C 276.97 413.47 279.27 421.35 282.28 428.88 L 282.49 429.42 L 282.49 462.21 L 261.57 462.21 L 261.57 491.58 Z M 215.62 485.58 L 255.57 485.58 L 255.57 456.21 L 276.49 456.21 L 276.49 430.58 C 273.74 423.62 271.58 416.39 270.05 409.03 L 255.57 409.03 L 255.57 365.95 L 215.62 365.95 L 215.62 409.03 L 167.77 409.03 L 229.76 276.44 L 186.20 275.22 L 126.03 404.89 L 126.00 456.22 L 215.63 456.22 L 215.63 485.58 Z" fill="#838383" fill-rule="nonzero" group-id="1,3,22,46" node-id="245" stroke="none" target-height="222.48999" target-width="162.5" target-x="119.99" target-y="269.09"></path></g></g><g node-id="309"><g node-id="333"><path d="M 658.83 491.58 L 606.88 491.58 L 606.88 462.21 L 517.25 462.21 L 517.25 431.95 L 517.49 431.39 C 524.12 415.79 527.50 399.20 527.55 382.09 L 527.55 381.43 L 579.68 269.10 L 636.33 270.69 L 574.46 403.03 L 606.88 403.03 L 606.88 359.95 L 658.83 359.95 L 658.83 403.03 L 679.75 403.03 L 679.75 462.22 L 658.83 462.22 L 658.83 491.58 Z M 612.89 485.58 L 652.84 485.58 L 652.84 456.21 L 673.76 456.21 L 673.76 409.02 L 652.84 409.02 L 652.84 365.94 L 612.89 365.94 L 612.89 409.02 L 565.04 409.02 L 627.03 276.43 L 583.47 275.21 L 533.56 382.77 C 533.43 400.24 529.97 417.19 523.27 433.17 L 523.27 456.22 L 612.90 456.22 L 612.90 485.58 Z" fill="#838383" fill-rule="nonzero" group-id="1,3,23,47" node-id="253" stroke="none" target-height="222.47998" target-width="162.5" target-x="517.25" target-y="269.1"></path></g></g><g node-id="310"><g node-id="334"><path d="M 433.52 467.79 C 425.70 467.79 419.33 461.42 419.33 453.60 C 419.33 445.78 425.70 439.41 433.52 439.41 C 441.34 439.41 447.71 445.78 447.71 453.60 C 447.71 461.42 441.34 467.79 433.52 467.79 Z M 433.52 445.41 C 429.00 445.41 425.33 449.08 425.33 453.60 C 425.33 458.12 429.00 461.79 433.52 461.79 C 438.04 461.79 441.71 458.12 441.71 453.60 C 441.71 449.08 438.04 445.41 433.52 445.41 Z" fill="#838383" fill-rule="nonzero" group-id="1,3,24,48" node-id="261" stroke="none" target-height="28.380005" target-width="28.380005" target-x="419.33" target-y="439.41"></path></g></g><g node-id="311"><g node-id="335"><path d="M 327.06 411.14 C 321.25 411.14 316.52 406.41 316.52 400.60 C 316.52 394.79 321.25 390.06 327.06 390.06 C 332.87 390.06 337.60 394.79 337.60 400.60 C 337.60 406.41 332.88 411.14 327.06 411.14 Z M 327.06 394.06 C 323.45 394.06 320.52 396.99 320.52 400.60 C 320.52 404.21 323.45 407.14 327.06 407.14 C 330.67 407.14 333.60 404.21 333.60 400.60 C 333.60 396.99 330.67 394.06 327.06 394.06 Z" fill="#838383" fill-rule="nonzero" group-id="1,3,25,49" node-id="269" stroke="none" target-height="21.080017" target-width="21.080017" target-x="316.52" target-y="390.06"></path></g></g><g node-id="312"><g node-id="336"><path d="M 456.09 367.78 C 455.58 367.78 455.07 367.58 454.68 367.19 C 453.90 366.41 453.90 365.14 454.68 364.36 L 466.66 352.38 C 467.44 351.60 468.71 351.60 469.49 352.38 C 470.27 353.16 470.27 354.43 469.49 355.21 L 457.50 367.20 C 457.11 367.59 456.60 367.78 456.09 367.78 Z" fill="#838383" fill-rule="nonzero" group-id="1,3,26,50" node-id="277" stroke="none" target-height="16.179993" target-width="16.369995" target-x="453.9" target-y="351.6"></path></g></g><path d="M 468.06 367.78 C 467.55 367.78 467.04 367.58 466.65 367.19 L 454.67 355.21 C 453.89 354.43 453.89 353.16 454.67 352.38 C 455.45 351.60 456.72 351.60 457.50 352.38 L 469.48 364.36 C 470.26 365.14 470.26 366.41 469.48 367.19 C 469.09 367.59 468.58 367.78 468.06 367.78 Z" fill="#838383" fill-rule="nonzero" group-id="1,3,27,51" node-id="285" stroke="none" target-height="16.179993" target-width="16.369995" target-x="453.89" target-y="351.6"></path></g></g></svg>