<?xml version="1.0" standalone="no"?><!DOCTYPE svg PUBLIC "-//W3C//DTD SVG 1.1//EN" "http://www.w3.org/Graphics/SVG/1.1/DTD/svg11.dtd"><svg class="icon" width="64px" height="64.00px" viewBox="0 0 1024 1024" version="1.1" xmlns="http://www.w3.org/2000/svg"><path fill="#bfbfbf" d="M841.728 813.2096a28.672 28.672 0 1 1 0 57.1904H182.272a28.672 28.672 0 1 1 0-57.1904h659.456zM797.9008 192a130.7648 130.7648 0 0 1 1.536 183.7056l-1.536 1.536-381.184 380.2112a28.7232 28.7232 0 0 1-19.8144 8.3968H251.2384a28.672 28.672 0 0 1-28.672-28.16V592.384c0-7.424 2.9184-14.5408 8.0896-19.9168l0.3584-0.3072 381.1328-380.2112c51.3024-51.1488 134.4512-51.1488 185.7536 0z m-201.728 96.768l-316.2112 315.4944v104.3456H384.512l316.2624-315.4432-104.6016-104.448z m57.344-57.1904l-0.8192 0.8192-15.9232 15.872 104.6016 104.448 15.9744-15.872a73.6768 73.6768 0 0 0 0.8192-103.5776l-0.8192-0.8704a74.1376 74.1376 0 0 0-103.7824-0.8192z"  /></svg>