<?xml version="1.0" standalone="no"?><!DOCTYPE svg PUBLIC "-//W3C//DTD SVG 1.1//EN" "http://www.w3.org/Graphics/SVG/1.1/DTD/svg11.dtd"><svg class="icon" width="64px" height="64.00px" viewBox="0 0 1024 1024" version="1.1" xmlns="http://www.w3.org/2000/svg"><path fill="#bfbfbf" d="M232.448 128h558.677333c34.218667-0.085333 62.08 31.018667 62.208 69.546667v629.034666c-0.085333 38.314667-27.733333 69.376-61.824 69.418667H232.533333C198.4 896 170.666667 864.853333 170.666667 826.538667V197.546667c0-38.4 27.690667-69.504 61.781333-69.546667z m0.256 698.538667l310.314667-0.170667 248.490666-0.170667-0.213333-628.608-0.170667 0.213334H232.448V302.506667l0.128 174.549333v69.845333l0.085333 174.506667 0.085334 105.130667zM322.56 360.106667a31.018667 31.018667 0 1 1 62.08 0 31.018667 31.018667 0 0 1-62.08 0z m0 155.136a31.018667 31.018667 0 1 1 62.08 0 31.018667 31.018667 0 0 1-62.08 0z m0 155.178666a31.018667 31.018667 0 1 1 62.08 0 31.018667 31.018667 0 0 1-62.08 0z m132.48-341.333333h217.216a31.018667 31.018667 0 0 1 0 62.037333h-217.216a31.018667 31.018667 0 0 1 0-62.037333z m0 310.314667h217.216a31.018667 31.018667 0 1 1 0 62.037333h-217.216a31.018667 31.018667 0 0 1 0-62.037333z m0-155.178667h217.216a31.018667 31.018667 0 0 1 0 62.08h-217.216a31.018667 31.018667 0 0 1 0-62.08z"  /></svg>