<?xml version="1.0" standalone="no"?><!DOCTYPE svg PUBLIC "-//W3C//DTD SVG 1.1//EN" "http://www.w3.org/Graphics/SVG/1.1/DTD/svg11.dtd"><svg class="icon" width="64px" height="64.00px" viewBox="0 0 1024 1024" version="1.1" xmlns="http://www.w3.org/2000/svg"><path fill="#bfbfbf" d="M784.8448 246.0672v499.2c0 19.6096-8.0384 38.4-22.3232 52.2752a77.2096 77.2096 0 0 1-53.76 21.6576H366.4384c-20.1728 0-39.5264-7.7824-53.76-21.6576a72.96 72.96 0 0 1-22.3232-52.2752v-499.2h494.4896z m-57.088 55.4496H347.4432v443.6992c0 4.9152 1.9968 9.6256 5.5296 13.1072 3.584 3.4304 8.3968 5.376 13.4656 5.376h342.3232a19.3024 19.3024 0 0 0 17.5616-11.3664 18.2272 18.2272 0 0 0 1.4336-7.1168V301.568zM471.04 689.7664a28.16 28.16 0 0 1-28.5184-27.6992V440.1664a28.16 28.16 0 0 1 28.5184-27.6992 28.16 28.16 0 0 1 28.5184 27.6992v221.9008c0 15.36-12.8 27.7504-28.5184 27.7504z m133.12 0a28.16 28.16 0 0 1-28.5184-27.6992V440.1664a28.16 28.16 0 0 1 28.5184-27.6992 28.16 28.16 0 0 1 28.5184 27.6992v221.9008c0 15.36-12.8 27.7504-28.5184 27.7504z m237.7216-388.2496H233.3184A28.16 28.16 0 0 1 204.8 273.7664a28.16 28.16 0 0 1 28.5184-27.6992h608.5632a28.16 28.16 0 0 1 28.5184 27.6992c0 15.36-12.8 27.7504-28.5184 27.7504z m-221.5424-92.4672l4.7616 37.0176H450.048l4.7616-37.0176h165.4784zM637.0816 153.6H438.1184a37.6832 37.6832 0 0 0-37.9904 32.3584l-14.6432 115.5584h304.2304l-14.848-115.5584A37.6832 37.6832 0 0 0 636.928 153.6h0.2048z"  /></svg>