<?xml version="1.0" standalone="no"?><!DOCTYPE svg PUBLIC "-//W3C//DTD SVG 1.1//EN" "http://www.w3.org/Graphics/SVG/1.1/DTD/svg11.dtd"><svg class="icon" width="64px" height="64.00px" viewBox="0 0 1024 1024" version="1.1" xmlns="http://www.w3.org/2000/svg"><path fill="#bfbfbf" d="M842.8544 484.4544c-1.1776 0-2.1504 0.512-3.2768 0.6144-1.0752-0.1024-2.048-0.6144-3.2256-0.6144H539.648V184.6272c0-0.6144-0.3072-1.1264-0.4096-1.7408 0.1024-0.5632 0.4096-1.1264 0.4096-1.7408A27.5968 27.5968 0 0 0 512 153.6c-197.632 0-358.4 160.768-358.4 358.4s160.768 358.4 358.4 358.4 358.4-160.768 358.4-358.4a27.5456 27.5456 0 0 0-27.5456-27.5456zM512 815.2576A303.616 303.616 0 0 1 208.7424 512a303.5648 303.5648 0 0 1 275.712-301.8752V512a27.5968 27.5968 0 0 0 27.5456 27.5968h301.8752A303.5648 303.5648 0 0 1 512 815.2576z m97.9456-590.3872a306.176 306.176 0 0 1 186.7776 182.528 27.648 27.648 0 1 0 51.712-18.9952 356.864 356.864 0 0 0-220.672-215.7056 27.5456 27.5456 0 0 0-17.8176 52.1728z"  /></svg>