<svg height="800" node-id="1" sillyvg="true" template-height="800" template-width="800" version="1.1" viewBox="0 0 800 800" width="800" xmlns="http://www.w3.org/2000/svg" xmlns:xlink="http://www.w3.org/1999/xlink"><defs node-id="117"></defs><g node-id="404"><g node-id="405"><g node-id="407"><g node-id="439"><path d="M 688.48 176.10 C 688.48 187.02 679.62 195.88 668.70 195.88 C 657.78 195.88 648.92 187.02 648.92 176.10 C 648.92 165.18 657.78 156.32 668.70 156.32 C 679.62 156.32 688.48 165.18 688.48 176.10 Z" fill="#f3f3f3" fill-rule="nonzero" group-id="1,2,4,36" node-id="128" stroke="none" target-height="39.559998" target-width="39.559998" target-x="648.92" target-y="156.32"></path></g></g><g node-id="408"><g node-id="440"><path d="M 120.36 627.90 C 120.36 638.82 111.50 647.68 100.58 647.68 C 89.66 647.68 80.80 638.82 80.80 627.90 C 80.80 616.98 89.66 608.12 100.58 608.12 C 111.50 608.12 120.36 616.98 120.36 627.90 Z" fill="#f3f3f3" fill-rule="nonzero" group-id="1,2,5,37" node-id="136" stroke="none" target-height="39.559998" target-width="39.559998" target-x="80.8" target-y="608.12"></path></g></g><g node-id="409"><g node-id="441"><path d="M 221.71 689.90 C 214.33 689.90 208.33 683.90 208.33 676.52 C 208.33 669.14 214.33 663.14 221.71 663.14 C 229.09 663.14 235.09 669.14 235.09 676.52 C 235.09 683.90 229.09 689.90 221.71 689.90 Z M 221.71 669.57 C 217.88 669.57 214.76 672.69 214.76 676.52 C 214.76 680.35 217.88 683.47 221.71 683.47 C 225.54 683.47 228.66 680.35 228.66 676.52 C 228.66 672.69 225.54 669.57 221.71 669.57 Z" fill="#f3f3f3" fill-rule="nonzero" group-id="1,2,6,38" node-id="144" stroke="none" target-height="26.76001" target-width="26.759995" target-x="208.33" target-y="663.14"></path></g></g><g node-id="410"><g node-id="442"><path d="M 600.14 116.76 L 580.16 116.76 L 580.16 96.78 C 580.16 93.12 577.20 90.16 573.54 90.16 C 569.88 90.16 566.92 93.12 566.92 96.78 L 566.92 116.76 L 546.94 116.76 C 543.28 116.76 540.32 119.72 540.32 123.38 C 540.32 127.04 543.28 130.00 546.94 130.00 L 566.92 130.00 L 566.92 149.98 C 566.92 153.64 569.88 156.60 573.54 156.60 C 577.20 156.60 580.16 153.64 580.16 149.98 L 580.16 130.00 L 600.14 130.00 C 603.80 130.00 606.76 127.04 606.76 123.38 C 606.76 119.72 603.80 116.76 600.14 116.76 Z" fill="#f3f3f3" fill-rule="nonzero" group-id="1,2,7,39" node-id="152" stroke="none" target-height="66.44" target-width="66.44" target-x="540.32" target-y="90.16"></path></g></g><g node-id="411"><g node-id="443"><path d="M 657.72 693.79 L 642.88 693.79 L 642.88 678.95 C 642.88 675.91 640.41 673.44 637.37 673.44 C 634.33 673.44 631.86 675.91 631.86 678.95 L 631.86 693.79 L 617.02 693.79 C 613.98 693.79 611.51 696.26 611.51 699.30 C 611.51 702.34 613.98 704.81 617.02 704.81 L 631.86 704.81 L 631.86 719.65 C 631.86 722.69 634.33 725.16 637.37 725.16 C 640.41 725.16 642.88 722.69 642.88 719.65 L 642.88 704.80 L 657.72 704.80 C 660.76 704.80 663.23 702.33 663.23 699.29 C 663.23 696.25 660.76 693.79 657.72 693.79 Z" fill="#f3f3f3" fill-rule="nonzero" group-id="1,2,8,40" node-id="160" stroke="none" target-height="51.71997" target-width="51.71997" target-x="611.51" target-y="673.44"></path></g></g><g node-id="412"><g node-id="444"><path d="M 122.65 132.20 C 131.35 140.90 145.47 140.90 154.17 132.20 L 154.17 132.20 C 162.87 123.50 162.87 109.38 154.17 100.68 L 147.51 94.02 C 138.81 85.32 124.69 85.32 115.99 94.02 L 115.99 94.02 C 107.29 102.72 107.29 116.84 115.99 125.54 L 122.65 132.20 Z" fill="#f3f3f3" fill-rule="nonzero" group-id="1,2,9,41" node-id="168" stroke="none" target-height="55.579994" target-width="55.579994" target-x="107.29" target-y="85.32"></path></g></g><g node-id="413"><g node-id="445"><path d="M 237.37 124.15 C 241.34 128.12 247.78 128.12 251.75 124.15 C 255.72 120.18 255.72 113.74 251.75 109.77 L 241.74 99.76 C 237.77 95.79 231.33 95.79 227.36 99.76 C 223.39 103.73 223.39 110.17 227.36 114.14 L 237.37 124.15 Z" fill="#f3f3f3" fill-rule="nonzero" group-id="1,2,10,42" node-id="176" stroke="none" target-height="32.329994" target-width="32.33" target-x="223.39" target-y="95.79"></path></g></g><g node-id="414"><g node-id="446"><path d="M 86.30 324.87 C 90.27 328.84 96.71 328.84 100.68 324.87 L 100.68 324.87 C 104.65 320.90 104.65 314.46 100.68 310.49 L 90.67 300.48 C 86.70 296.51 80.26 296.51 76.29 300.48 C 72.32 304.45 72.32 310.89 76.29 314.86 L 86.30 324.87 Z" fill="#f3f3f3" fill-rule="nonzero" group-id="1,2,11,43" node-id="184" stroke="none" target-height="32.329987" target-width="32.33" target-x="72.32" target-y="296.51"></path></g></g><g node-id="415"><g node-id="447"><path d="M 614.27 632.33 C 610.30 628.36 603.86 628.36 599.89 632.33 C 595.92 636.30 595.92 642.74 599.89 646.71 L 609.90 656.72 C 613.87 660.69 620.31 660.69 624.28 656.72 C 628.25 652.75 628.25 646.31 624.28 642.34 L 614.27 632.33 Z" fill="#f3f3f3" fill-rule="nonzero" group-id="1,2,12,44" node-id="192" stroke="none" target-height="32.330017" target-width="32.330017" target-x="595.92" target-y="628.36"></path></g></g><g node-id="416"><g node-id="448"><path d="M 734.65 640.82 C 734.65 658.92 719.98 673.59 701.88 673.59 C 683.78 673.59 669.11 658.92 669.11 640.82 C 669.11 622.72 683.78 608.05 701.88 608.05 C 719.98 608.05 734.65 622.72 734.65 640.82 Z" fill="#f3f3f3" fill-rule="nonzero" group-id="1,2,13,45" node-id="200" stroke="none" target-height="65.54004" target-width="65.54004" target-x="669.11" target-y="608.05"></path></g></g><g node-id="417"><g node-id="449"><path d="M 702.53 488.86 L 671.02 457.35 L 651.05 436.08 C 645.88 430.65 645.81 422.14 650.89 416.62 L 650.89 416.62 C 656.44 410.59 665.93 410.48 671.61 416.39 L 675.65 420.80 L 684.97 430.12 C 690.38 435.53 699.26 435.94 704.77 430.63 C 710.38 425.22 710.45 416.28 704.96 410.79 L 686.33 392.16 C 679.45 385.28 674.97 376.34 673.67 366.70 C 655.45 231.31 539.47 126.91 399.09 126.91 C 394.30 126.91 389.54 127.04 384.81 127.28 C 379.70 127.54 374.71 125.67 371.10 122.05 L 351.96 102.91 C 343.41 94.36 329.49 93.73 320.64 101.97 C 311.35 110.62 311.16 125.16 320.05 134.06 L 323.39 137.40 L 333.80 148.34 C 340.34 155.26 339.37 166.34 331.72 172.02 C 325.21 176.85 317.04 175.28 311.53 169.33 L 290.84 148.87 L 272.80 130.83 C 268.97 127.00 262.74 126.55 258.67 130.12 C 254.21 134.04 254.05 140.83 258.18 144.96 L 271.32 158.10 L 279.88 166.34 C 288.58 174.86 288.77 188.14 280.12 196.70 L 280.12 196.70 C 271.53 205.19 257.67 205.08 249.23 196.44 L 234.49 181.11 L 199.18 145.80 C 190.48 137.10 176.36 137.10 167.66 145.80 L 167.66 145.80 C 158.96 154.50 158.96 168.62 167.66 177.32 L 193.25 203.00 L 202.23 211.38 C 210.72 219.81 210.92 233.47 202.68 242.14 L 202.68 242.14 C 193.86 251.43 178.99 251.25 170.40 241.74 L 165.44 236.30 L 150.08 220.86 C 137.46 208.24 116.88 207.46 103.92 219.74 C 90.47 232.47 90.25 253.71 103.26 266.72 L 140.60 304.05 L 158.40 321.64 C 165.11 328.28 164.90 339.19 157.94 345.57 L 157.94 345.57 C 151.36 351.60 141.18 351.32 134.95 344.94 L 129.60 339.39 L 121.49 331.28 C 117.52 327.31 111.08 327.31 107.11 331.28 L 107.11 331.28 C 102.05 335.48 103.42 341.97 107.17 345.72 L 124.96 363.51 L 161.95 399.60 C 168.33 405.82 168.36 416.07 162.03 422.33 L 162.03 422.33 C 155.85 428.44 145.91 428.48 139.69 422.41 L 122.02 405.17 L 96.06 379.21 C 90.65 373.80 81.77 373.39 76.26 378.70 C 70.65 384.11 70.58 393.05 76.07 398.54 L 119.96 442.43 C 123.51 445.98 125.87 450.54 126.80 455.48 C 150.29 580.41 257.60 675.75 388.10 680.84 C 395.30 681.12 402.16 684.00 407.38 688.98 C 415.84 697.06 427.65 708.32 427.65 708.32 C 436.20 716.87 450.12 717.50 458.97 709.26 C 468.26 700.61 468.45 686.07 459.56 677.17 L 457.30 674.91 L 447.49 664.67 C 441.90 658.61 442.46 649.12 448.72 643.75 L 448.72 643.75 C 454.65 638.67 463.53 639.17 468.85 644.88 L 489.07 666.10 L 511.09 688.12 C 519.99 697.01 534.53 696.82 543.18 687.54 C 551.42 678.70 550.78 664.77 542.24 656.22 L 532.74 646.72 C 532.74 646.72 529.72 643.61 525.85 639.63 C 516.82 630.35 517.14 615.47 526.55 606.58 L 527.03 606.13 C 536.05 597.61 550.18 597.70 559.10 606.33 L 572.92 619.71 L 578.83 625.62 C 582.66 629.45 588.90 629.90 592.96 626.33 C 597.42 622.41 597.58 615.61 593.45 611.49 L 588.30 606.34 C 587.36 606.78 567.47 586.30 555.67 574.02 C 550.92 569.08 551.11 561.23 556.08 556.52 L 556.08 556.52 C 561.03 551.83 568.85 552.05 573.53 557.00 L 604.56 589.82 L 618.71 603.97 C 631.33 616.59 651.90 617.37 664.87 605.10 C 678.32 592.37 678.54 571.13 665.53 558.12 L 642.96 535.55 L 631.56 523.12 C 625.99 517.10 626.24 507.74 632.12 502.02 L 632.12 502.02 C 638.23 496.08 648.04 496.38 653.79 502.67 L 656.71 506.07 L 671.35 520.72 C 680.25 529.62 694.79 529.42 703.44 520.14 C 711.71 511.34 711.08 497.41 702.53 488.86 Z" fill="#f3f3f3" fill-rule="nonzero" group-id="1,2,14,46" node-id="208" stroke="none" target-height="623.77" target-width="641.13" target-x="70.58" target-y="93.73"></path></g></g><g node-id="418"><g node-id="450"><path d="M 430.02 207.89 L 415.18 207.89 L 415.18 193.05 C 415.18 190.01 412.71 187.54 409.67 187.54 C 406.63 187.54 404.16 190.01 404.16 193.05 L 404.16 207.89 L 389.32 207.89 C 386.28 207.89 383.81 210.36 383.81 213.40 C 383.81 216.44 386.28 218.91 389.32 218.91 L 404.16 218.91 L 404.16 233.75 C 404.16 236.79 406.63 239.26 409.67 239.26 C 412.71 239.26 415.18 236.79 415.18 233.75 L 415.18 218.90 L 430.02 218.90 C 433.06 218.90 435.53 216.43 435.53 213.39 C 435.53 210.35 433.07 207.89 430.02 207.89 Z" fill="#ffffff" fill-rule="nonzero" group-id="1,2,15,47" node-id="216" stroke="none" target-height="51.72" target-width="51.72" target-x="383.81" target-y="187.54"></path></g></g><g node-id="419"><g node-id="451"><path d="M 585.78 426.43 C 578.40 426.43 572.40 420.43 572.40 413.05 C 572.40 405.67 578.40 399.67 585.78 399.67 C 593.16 399.67 599.16 405.67 599.16 413.05 C 599.16 420.43 593.16 426.43 585.78 426.43 Z M 585.78 406.10 C 581.95 406.10 578.83 409.22 578.83 413.05 C 578.83 416.88 581.95 420.00 585.78 420.00 C 589.61 420.00 592.73 416.88 592.73 413.05 C 592.73 409.22 589.61 406.10 585.78 406.10 Z" fill="#ffffff" fill-rule="nonzero" group-id="1,2,16,48" node-id="224" stroke="none" target-height="26.75998" target-width="26.759949" target-x="572.4" target-y="399.67"></path></g></g><path d="M 223.13 528.46 C 215.75 528.46 209.75 522.46 209.75 515.08 C 209.75 507.70 215.75 501.70 223.13 501.70 C 230.51 501.70 236.51 507.70 236.51 515.08 C 236.51 522.46 230.51 528.46 223.13 528.46 Z M 223.13 508.13 C 219.30 508.13 216.18 511.25 216.18 515.08 C 216.18 518.91 219.30 522.03 223.13 522.03 C 226.96 522.03 230.08 518.91 230.08 515.08 C 230.08 511.25 226.96 508.13 223.13 508.13 Z" fill="#ffffff" fill-rule="nonzero" group-id="1,2,17,49" node-id="232" stroke="none" target-height="26.76001" target-width="26.759995" target-x="209.75" target-y="501.7"></path></g><g node-id="406"><g node-id="421"><g node-id="453"><path d="M 505.57 225.83 L 512.73 209.51 L 517.92 212.82 L 511.90 230.86 Z" fill="#ffffff" fill-rule="nonzero" group-id="1,3,18,50" node-id="243" stroke="none" target-height="21.350006" target-width="12.349976" target-x="505.57" target-y="209.51"></path></g></g><g node-id="422"><g node-id="454"><path d="M 511.90 233.86 C 511.23 233.86 510.57 233.64 510.03 233.21 L 503.70 228.17 C 502.63 227.32 502.27 225.86 502.82 224.62 L 509.98 208.30 C 510.33 207.50 511.02 206.89 511.85 206.63 C 512.69 206.38 513.59 206.50 514.33 206.97 L 519.52 210.28 C 520.68 211.02 521.19 212.45 520.75 213.76 L 514.73 231.81 C 514.42 232.74 513.68 233.46 512.74 233.74 C 512.48 233.82 512.19 233.86 511.90 233.86 Z M 509.25 224.92 L 510.42 225.85 L 514.34 214.09 L 514.07 213.92 L 509.25 224.92 Z" fill="#838383" fill-rule="nonzero" group-id="1,3,19,51" node-id="251" stroke="none" target-height="27.479996" target-width="18.920013" target-x="502.27" target-y="206.38"></path></g></g><g node-id="423"><g node-id="455"><path d="M 527.31 204.93 C 527.31 210.06 523.16 214.21 518.03 214.21 C 512.90 214.21 508.75 210.06 508.75 204.93 C 508.75 199.80 512.90 195.65 518.03 195.65 C 523.16 195.65 527.31 199.80 527.31 204.93 Z" fill="#ffffff" fill-rule="nonzero" group-id="1,3,20,52" node-id="259" stroke="none" target-height="18.560013" target-width="18.559998" target-x="508.75" target-y="195.65"></path></g></g><g node-id="424"><g node-id="456"><path d="M 518.02 217.21 C 511.53 217.21 506.10 212.10 505.77 205.55 C 505.60 202.27 506.73 199.13 508.92 196.70 C 511.11 194.27 514.13 192.84 517.41 192.67 C 520.69 192.51 523.83 193.62 526.26 195.82 C 528.69 198.02 530.12 201.03 530.29 204.31 L 530.29 204.31 C 530.63 211.07 525.41 216.85 518.65 217.19 C 518.44 217.21 518.23 217.21 518.02 217.21 Z M 518.04 198.66 C 517.93 198.66 517.82 198.66 517.72 198.67 C 516.05 198.75 514.50 199.49 513.38 200.73 C 512.25 201.97 511.68 203.58 511.77 205.25 C 511.85 206.92 512.59 208.47 513.83 209.59 C 515.08 210.72 516.70 211.28 518.36 211.20 C 520.03 211.12 521.58 210.38 522.70 209.14 C 523.83 207.90 524.40 206.29 524.31 204.61 L 524.31 204.61 C 524.23 202.94 523.49 201.39 522.25 200.27 C 521.07 199.23 519.59 198.66 518.04 198.66 Z" fill="#838383" fill-rule="nonzero" group-id="1,3,21,53" node-id="267" stroke="none" target-height="24.700012" target-width="25.029999" target-x="505.6" target-y="192.51"></path></g></g><g node-id="425"><g node-id="457"><path d="M 396.72 260.96 C 396.72 260.96 440.13 193.44 514.99 222.80 C 589.85 252.16 559.86 327.02 559.86 327.02 C 559.86 327.02 503.24 276.48 396.72 260.96 Z" fill="#ffffff" fill-rule="nonzero" group-id="1,3,22,54" node-id="275" stroke="none" target-height="133.57999" target-width="193.12997" target-x="396.72" target-y="193.44"></path></g></g><g node-id="426"><g node-id="458"><path d="M 559.86 330.01 C 559.13 330.01 558.42 329.75 557.86 329.25 C 557.30 328.75 500.57 279.12 396.28 263.93 C 395.27 263.78 394.40 263.13 393.98 262.20 C 393.56 261.27 393.64 260.19 394.19 259.33 C 394.65 258.62 405.62 241.76 426.13 228.35 C 445.16 215.91 476.21 204.36 516.07 220.00 C 538.88 228.95 554.53 242.94 562.60 261.58 C 576.30 293.27 563.20 326.72 562.64 328.13 C 562.28 329.04 561.49 329.71 560.54 329.93 C 560.32 329.99 560.09 330.01 559.86 330.01 Z M 402.04 258.73 C 455.06 267.11 495.12 284.14 519.64 297.15 C 539.69 307.79 552.65 317.33 558.41 321.91 C 561.32 312.36 567.17 287.21 557.07 263.91 C 549.66 246.81 535.13 233.91 513.88 225.58 C 483.87 213.81 455.51 216.39 429.59 233.25 C 415.82 242.23 406.41 253.08 402.04 258.73 Z" fill="#838383" fill-rule="nonzero" group-id="1,3,23,55" node-id="283" stroke="none" target-height="125.65001" target-width="182.73999" target-x="393.56" target-y="204.36"></path></g></g><g node-id="427"><g node-id="459"><g node-id="471"><path d="M 481.03 266.62 L 494.34 271.24 L 506.97 276.09 L 518.95 281.16 L 530.78 286.64 L 541.72 292.20 L 551.85 297.82 L 561.76 303.86 L 570.62 309.81 L 578.49 315.66 L 584.28 320.41 L 589.38 325.00 L 593.82 329.43 L 597.67 333.72 L 601.35 338.42 L 604.27 342.85 L 606.52 347.05 L 608.17 351.05 L 609.16 354.48 L 609.68 357.72 L 609.78 360.82 L 609.47 363.80 L 608.76 366.69 L 607.62 369.44 L 606.10 372.02 L 604.18 374.45 L 601.83 376.75 L 599.01 378.93 L 595.31 381.16 L 591.01 383.21 L 586.02 385.05 L 580.28 386.65 L 574.63 387.82 L 568.42 388.75 L 561.60 389.43 L 554.12 389.81 L 544.31 389.85 L 533.66 389.38 L 522.09 388.37 L 510.61 386.89 L 498.49 384.87 L 485.73 382.27 L 473.07 379.24 L 460.03 375.65 L 446.57 371.48 L 433.27 366.86 L 420.64 362.01 L 408.65 356.94 L 396.83 351.46 L 385.88 345.90 L 375.76 340.28 L 365.85 334.24 L 356.99 328.29 L 349.12 322.44 L 343.32 317.69 L 338.23 313.10 L 333.79 308.67 L 329.94 304.38 L 326.26 299.68 L 323.34 295.25 L 321.09 291.05 L 319.44 287.05 L 318.45 283.62 L 317.93 280.38 L 317.83 277.28 L 318.13 274.30 L 318.84 271.41 L 319.99 268.66 L 321.51 266.08 L 323.42 263.65 L 325.77 261.35 L 328.60 259.18 L 332.30 256.94 L 336.60 254.89 L 341.58 253.05 L 347.33 251.45 L 352.97 250.28 L 359.18 249.35 L 366.00 248.68 L 373.48 248.29 L 383.29 248.25 L 393.95 248.72 L 405.52 249.73 L 417.00 251.21 L 429.11 253.23 L 441.88 255.83 L 454.54 258.86 L 467.58 262.45 L 481.03 266.62 Z" fill="#ffffff" fill-rule="nonzero" group-id="1,3,24,56,68" node-id="293" stroke="none" target-height="141.6" target-width="291.95004" target-x="317.83" target-y="248.25"></path></g></g></g><g node-id="428"><g node-id="460"><path d="M 548.30 392.96 C 519.57 392.96 483.66 386.82 445.64 374.32 C 362.75 347.08 305.80 301.46 315.99 270.47 C 326.18 239.47 399.08 236.53 481.97 263.76 C 521.01 276.59 555.95 294.18 580.34 313.29 C 605.54 333.03 616.64 352.32 611.62 367.62 C 606.11 384.40 582.21 392.96 548.30 392.96 Z M 378.84 251.30 C 348.11 251.30 326.28 258.36 321.69 272.34 C 312.86 299.22 370.48 343.31 447.51 368.62 C 524.55 393.94 597.09 392.61 605.92 365.74 C 610.04 353.21 599.37 335.81 576.64 318.01 C 552.78 299.32 518.49 282.08 480.09 269.46 C 443.13 257.31 407.19 251.30 378.84 251.30 Z" fill="#838383" fill-rule="nonzero" group-id="1,3,25,57" node-id="302" stroke="none" target-height="157.41" target-width="310.84003" target-x="305.8" target-y="236.53"></path></g></g><g node-id="429"><g node-id="461"><path d="M 177.91 518.41 L 362.20 283.70 L 566.24 353.55 L 510.47 603.05 L 254.28 537.85 Z" fill="#ffffff" fill-rule="nonzero" group-id="1,3,26,58" node-id="310" stroke="none" target-height="319.34998" target-width="388.33" target-x="177.91" target-y="283.7"></path></g></g><g node-id="430"><g node-id="462"><path d="M 510.47 606.05 C 510.25 606.05 510.03 606.03 509.81 605.98 C 508.19 605.62 507.18 604.02 507.54 602.40 L 562.73 355.52 L 363.24 287.23 L 180.27 520.27 C 179.25 521.57 177.36 521.80 176.06 520.78 C 174.76 519.76 174.53 517.87 175.55 516.57 L 359.84 281.86 C 360.63 280.86 361.96 280.46 363.17 280.87 L 567.21 350.73 C 568.66 351.23 569.50 352.73 569.17 354.22 L 513.40 603.72 C 513.08 605.10 511.85 606.05 510.47 606.05 Z" fill="#838383" fill-rule="nonzero" group-id="1,3,27,59" node-id="318" stroke="none" target-height="325.59" target-width="394.97" target-x="174.53" target-y="280.46"></path></g></g><g node-id="431"><g node-id="463"><g node-id="472"><path d="M 473.11 290.73 L 484.45 294.65 L 495.10 298.70 L 505.08 302.88 L 514.95 307.39 L 523.88 311.86 L 531.91 316.27 L 539.79 321.05 L 546.47 325.58 L 552.07 329.87 L 556.19 333.46 L 559.49 336.77 L 562.07 339.82 L 564.03 342.65 L 565.66 345.83 L 566.49 348.65 L 566.67 351.20 L 566.24 353.56 L 565.18 355.72 L 563.53 357.67 L 561.18 359.45 L 557.98 361.04 L 554.73 362.15 L 550.84 363.08 L 546.22 363.79 L 540.78 364.23 L 533.72 364.36 L 525.66 364.05 L 516.48 363.22 L 507.39 362.01 L 497.56 360.31 L 486.94 358.09 L 476.42 355.52 L 465.45 352.47 L 453.99 348.91 L 442.66 344.98 L 432.01 340.93 L 422.03 336.76 L 412.15 332.24 L 403.23 327.78 L 395.19 323.36 L 387.32 318.58 L 380.64 314.05 L 375.04 309.76 L 370.92 306.17 L 367.62 302.87 L 365.04 299.81 L 363.08 296.99 L 361.45 293.81 L 360.62 290.99 L 360.44 288.44 L 360.87 286.07 L 361.93 283.91 L 363.58 281.96 L 365.93 280.19 L 369.13 278.60 L 372.38 277.48 L 376.27 276.56 L 380.88 275.85 L 386.33 275.40 L 393.39 275.27 L 401.45 275.59 L 410.62 276.41 L 419.71 277.62 L 429.55 279.32 L 440.17 281.54 L 450.69 284.11 L 461.66 287.16 L 473.11 290.73 Z" fill="#ffffff" fill-rule="nonzero" group-id="1,3,28,60,69" node-id="328" stroke="none" target-height="89.09" target-width="206.22998" target-x="360.44" target-y="275.27"></path></g></g></g><g node-id="432"><g node-id="464"><path d="M 535.41 367.42 C 512.63 367.42 481.76 361.18 453.06 351.75 C 425.38 342.65 400.32 331.03 382.51 319.01 C 363.43 306.14 354.97 294.43 358.02 285.14 C 361.07 275.85 374.84 271.44 397.83 272.40 C 419.30 273.29 446.37 278.79 474.05 287.89 C 525.21 304.70 575.91 333.76 569.09 354.51 L 569.09 354.51 C 566.10 363.60 553.23 367.42 535.41 367.42 Z M 392.01 278.26 C 375.98 278.26 365.55 281.43 363.72 287.00 C 361.68 293.19 369.96 303.30 385.87 314.03 C 403.24 325.75 427.77 337.12 454.94 346.05 C 513.77 365.38 559.32 365.03 563.40 352.62 L 563.40 352.62 C 567.48 340.21 531.02 312.91 472.19 293.58 C 445.02 284.65 418.52 279.25 397.59 278.39 C 395.66 278.30 393.80 278.26 392.01 278.26 Z M 566.24 353.55 L 566.24 353.55 L 566.24 353.55 Z" fill="#838383" fill-rule="nonzero" group-id="1,3,29,61" node-id="337" stroke="none" target-height="95.98001" target-width="220.93997" target-x="354.97" target-y="271.44"></path></g></g><g node-id="433"><g node-id="465"><g node-id="473"><path d="M 278.08 573.25 C 268.13 573.25 257.98 569.78 249.66 562.97 C 245.17 559.30 244.51 552.68 248.18 548.19 C 251.85 543.70 258.47 543.04 262.96 546.71 C 271.70 553.86 282.55 553.33 288.75 549.10 C 292.25 546.71 295.89 542.18 293.30 534.14 C 291.28 527.87 288.16 526.52 287.14 526.08 C 281.17 523.51 272.01 526.77 269.88 527.79 C 266.52 529.40 262.56 529.10 259.47 527.02 C 256.38 524.94 254.63 521.37 254.86 517.66 L 257.00 483.51 C 257.35 477.97 261.94 473.66 267.48 473.66 L 302.82 473.66 C 308.62 473.66 313.32 478.36 313.32 484.16 C 313.32 489.96 308.62 494.66 302.82 494.66 L 277.35 494.66 L 276.74 504.39 C 282.49 503.74 289.11 504.05 295.45 506.78 C 301.34 509.32 309.22 515.01 313.30 527.70 C 318.19 542.92 313.32 557.77 300.57 566.46 C 293.92 571.01 286.07 573.25 278.08 573.25 Z" fill="#ffffff" fill-rule="nonzero" group-id="1,3,30,62,70" node-id="347" stroke="none" target-height="99.59" target-width="73.68001" target-x="244.51" target-y="473.66"></path></g></g></g><g node-id="434"><g node-id="466"><g node-id="474"><path d="M 372.68 574.27 C 353.24 574.27 338.58 551.67 338.58 521.70 C 338.58 491.73 353.24 469.14 372.68 469.14 C 392.12 469.14 406.78 491.74 406.78 521.70 C 406.78 551.67 392.12 574.27 372.68 574.27 Z M 372.68 490.15 C 368.07 490.15 359.59 502.13 359.59 521.70 C 359.59 541.27 368.07 553.26 372.68 553.26 C 377.29 553.26 385.77 541.28 385.77 521.70 C 385.77 502.13 377.30 490.15 372.68 490.15 Z" fill="#ffffff" fill-rule="nonzero" group-id="1,3,31,63,71" node-id="358" stroke="none" target-height="105.130005" target-width="68.20001" target-x="338.58" target-y="469.14"></path></g></g></g><g node-id="435"><g node-id="467"><g node-id="475"><path d="M 467.33 574.71 C 447.89 574.71 433.23 552.11 433.23 522.15 C 433.23 492.18 447.89 469.59 467.33 469.59 C 486.77 469.59 501.43 492.19 501.43 522.15 C 501.43 552.11 486.77 574.71 467.33 574.71 Z M 467.33 490.59 C 462.72 490.59 454.24 502.57 454.24 522.14 C 454.24 541.71 462.72 553.70 467.33 553.70 C 471.94 553.70 480.42 541.72 480.42 522.14 C 480.42 502.57 471.94 490.59 467.33 490.59 Z" fill="#ffffff" fill-rule="nonzero" group-id="1,3,32,64,72" node-id="369" stroke="none" target-height="105.120026" target-width="68.19998" target-x="433.23" target-y="469.59"></path></g></g></g><g node-id="436"><g node-id="468"><g node-id="476"><path d="M 278.08 576.25 C 267.17 576.25 256.41 572.36 247.77 565.29 C 244.98 563.00 243.24 559.77 242.88 556.18 C 242.52 552.59 243.58 549.08 245.87 546.28 C 248.15 543.49 251.39 541.75 254.98 541.39 C 258.57 541.03 262.08 542.09 264.88 544.38 C 272.48 550.60 281.80 550.21 287.08 546.62 C 291.00 543.95 292.11 540.16 290.47 535.05 C 288.87 530.08 286.69 529.14 285.98 528.83 C 281.45 526.88 273.56 529.37 271.20 530.49 C 266.90 532.55 261.77 532.16 257.82 529.50 C 253.87 526.83 251.60 522.22 251.90 517.46 L 254.04 483.31 C 254.49 476.21 260.41 470.65 267.52 470.65 L 302.86 470.65 C 310.31 470.65 316.36 476.71 316.36 484.15 C 316.36 491.59 310.30 497.65 302.86 497.65 L 280.21 497.65 L 279.99 501.12 C 286.06 500.89 291.66 501.85 296.68 504.01 C 303.14 506.80 311.77 513.00 316.20 526.77 C 321.52 543.31 316.19 559.46 302.30 568.92 C 295.27 573.73 286.90 576.25 278.08 576.25 L 278.08 576.25 C 278.08 576.25 278.08 576.25 278.08 576.25 Z M 256.33 547.33 C 256.08 547.33 255.82 547.34 255.57 547.37 C 253.57 547.57 251.78 548.53 250.51 550.08 C 249.24 551.63 248.65 553.59 248.85 555.58 C 249.05 557.58 250.01 559.37 251.56 560.64 C 259.13 566.83 268.54 570.24 278.07 570.24 C 278.07 570.24 278.07 570.24 278.07 570.24 L 278.07 570.24 C 285.68 570.24 292.88 568.07 298.89 563.98 C 310.49 556.08 314.92 542.53 310.45 528.62 C 306.72 517.00 299.59 511.83 294.27 509.54 C 289.26 507.38 283.48 506.65 277.08 507.38 C 276.20 507.48 275.32 507.18 274.68 506.57 C 274.04 505.96 273.70 505.09 273.75 504.21 L 274.36 494.48 C 274.46 492.90 275.77 491.67 277.35 491.67 L 302.82 491.67 C 306.96 491.67 310.32 488.30 310.32 484.17 C 310.32 480.04 306.95 476.67 302.82 476.67 L 267.48 476.67 C 263.53 476.67 260.24 479.76 259.99 483.71 L 257.85 517.86 C 257.68 520.50 258.95 523.07 261.14 524.55 C 263.34 526.03 266.18 526.24 268.58 525.10 C 271.51 523.70 281.43 520.37 288.32 523.34 C 289.66 523.92 293.72 525.67 296.15 533.24 C 299.47 543.57 293.99 549.18 290.43 551.60 C 283.31 556.45 270.93 557.13 261.05 549.05 C 259.72 547.92 258.06 547.33 256.33 547.33 Z" fill="#838383" fill-rule="nonzero" group-id="1,3,33,65,73" node-id="380" stroke="none" target-height="105.600006" target-width="78.999985" target-x="242.52" target-y="470.65"></path></g></g></g><g node-id="437"><g node-id="469"><g node-id="477"><path d="M 372.68 577.27 C 351.53 577.27 335.58 553.38 335.58 521.70 C 335.58 490.02 351.53 466.14 372.68 466.14 C 393.83 466.14 409.78 490.03 409.78 521.70 C 409.78 553.38 393.83 577.27 372.68 577.27 Z M 372.68 472.14 C 354.95 472.14 341.58 493.45 341.58 521.70 C 341.58 549.96 354.95 571.27 372.68 571.27 C 390.41 571.27 403.78 549.96 403.78 521.70 C 403.78 493.45 390.41 472.14 372.68 472.14 Z M 372.68 556.26 C 365.08 556.26 356.59 541.48 356.59 521.70 C 356.59 501.92 365.09 487.15 372.68 487.15 C 380.27 487.15 388.77 501.93 388.77 521.70 C 388.77 541.48 380.28 556.26 372.68 556.26 Z M 372.68 493.15 C 370.58 493.41 362.59 502.76 362.59 521.70 C 362.59 540.70 370.63 550.05 372.70 550.26 C 374.74 550.05 382.77 540.70 382.77 521.70 C 382.77 502.76 374.78 493.41 372.68 493.15 Z" fill="#838383" fill-rule="nonzero" group-id="1,3,34,66,74" node-id="391" stroke="none" target-height="111.130005" target-width="74.20001" target-x="335.58" target-y="466.14"></path></g></g></g><path d="M 466.53 577.27 C 445.38 577.27 429.43 553.38 429.43 521.70 C 429.43 490.02 445.38 466.14 466.53 466.14 C 487.68 466.14 503.63 490.03 503.63 521.70 C 503.63 553.38 487.68 577.27 466.53 577.27 Z M 466.53 472.14 C 448.80 472.14 435.43 493.45 435.43 521.70 C 435.43 549.96 448.80 571.27 466.53 571.27 C 484.26 571.27 497.63 549.96 497.63 521.70 C 497.63 493.45 484.26 472.14 466.53 472.14 Z M 466.53 556.26 C 458.93 556.26 450.44 541.48 450.44 521.70 C 450.44 501.92 458.94 487.15 466.53 487.15 C 474.12 487.15 482.62 501.93 482.62 521.70 C 482.62 541.48 474.12 556.26 466.53 556.26 Z M 466.53 493.15 C 464.43 493.41 456.44 502.76 456.44 521.70 C 456.44 540.70 464.48 550.05 466.55 550.26 C 468.59 550.05 476.62 540.70 476.62 521.70 C 476.62 502.76 468.63 493.41 466.53 493.15 Z" fill="#838383" fill-rule="nonzero" group-id="1,3,35,67,75" node-id="402" stroke="none" target-height="111.130005" target-width="74.20001" target-x="429.43" target-y="466.14"></path></g></g></svg>