<?xml version="1.0" standalone="no"?><!DOCTYPE svg PUBLIC "-//W3C//DTD SVG 1.1//EN" "http://www.w3.org/Graphics/SVG/1.1/DTD/svg11.dtd"><svg class="icon" width="64px" height="64.00px" viewBox="0 0 1024 1024" version="1.1" xmlns="http://www.w3.org/2000/svg"><path fill="#bfbfbf" d="M658.6368 153.6a121.1392 121.1392 0 0 0-116.6848 90.624H204.9024v60.416h337.0496a121.088 121.088 0 0 0 116.736 90.624 121.088 121.088 0 0 0 116.6336-90.624H870.4V244.224h-95.0784A121.1392 121.1392 0 0 0 658.6368 153.6z m0 60.416c33.28 0 60.5184 27.136 60.5184 60.416 0 33.2288-27.2384 60.416-60.5184 60.416-33.28 0-60.4672-27.1872-60.4672-60.416 0-33.28 27.1872-60.416 60.4672-60.416zM416.5632 387.4816a121.1392 121.1392 0 0 0-116.6848 90.624H204.8v60.416h95.0784a121.088 121.088 0 0 0 116.6848 90.624 121.088 121.088 0 0 0 116.6848-90.624h337.0496v-60.416h-337.1008a121.088 121.088 0 0 0-116.6336-90.624z m0 60.416c33.28 0 60.4672 27.1872 60.4672 60.416 0 33.28-27.1872 60.416-60.4672 60.416s-60.5184-27.136-60.5184-60.416c0-33.2288 27.2384-60.416 60.5184-60.416z m241.9712 180.8384a121.088 121.088 0 0 0-116.6336 90.624H204.8v60.416h337.1008A121.1392 121.1392 0 0 0 658.5344 870.4a121.088 121.088 0 0 0 116.736-90.624h95.0272v-60.416h-95.0784a121.088 121.088 0 0 0-116.6848-90.624z m0 60.416c33.28 0 60.5184 27.1872 60.5184 60.416 0 33.28-27.2384 60.416-60.5184 60.416-33.28 0-60.4672-27.136-60.4672-60.416 0-33.2288 27.2384-60.416 60.4672-60.416z"  /></svg>