<?xml version="1.0" standalone="no"?><!DOCTYPE svg PUBLIC "-//W3C//DTD SVG 1.1//EN" "http://www.w3.org/Graphics/SVG/1.1/DTD/svg11.dtd"><svg class="icon" width="64px" height="64.00px" viewBox="0 0 1024 1024" version="1.1" xmlns="http://www.w3.org/2000/svg"><path fill="#bfbfbf" d="M804.2496 731.8016l-146.9952-146.9952c-1.6896-1.7408-3.584-3.072-5.4272-4.4544A243.2 243.2 0 1 0 204.8 448a243.2 243.2 0 0 0 375.6544 203.8272c1.3824 1.8432 2.6624 3.6864 4.352 5.376l146.9952 147.0464a51.0976 51.0976 0 0 0 72.3968 0c19.968-19.968 19.968-52.3776 0-72.3968zM448 614.4A166.6048 166.6048 0 0 1 281.6 448 166.6048 166.6048 0 0 1 448 281.6 166.6048 166.6048 0 0 1 614.4 448 166.6048 166.6048 0 0 1 448 614.4z"  /></svg>