<svg t="1693535301426" class="icon" viewBox="0 0 1024 1024" version="1.1" xmlns="http://www.w3.org/2000/svg" p-id="4011" width="64" height="64"><path d="M661.333333 192H423.253333l-18.752-93.696-83.669333 16.725333L336.213333 192H106.666667v85.333333h95.893333c5.696 17.92 14.101333 42.090667 25.578667 69.098667 19.754667 46.464 49.664 104 92.224 152.234667-38.485333 29.141333-81.344 55.594667-118.933334 76.8a1442.346667 1442.346667 0 0 1-84.458666 43.946666l-5.034667 2.346667-1.237333 0.576-0.341334 0.149333 17.642667 38.826667c17.621333 38.869333 17.706667 38.826667 17.706667 38.826667l0.106666-0.042667 0.426667-0.192 1.557333-0.704 5.674667-2.666667c4.906667-2.325333 11.946667-5.696 20.650667-10.026666a1527.829333 1527.829333 0 0 0 69.205333-36.693334c42.581333-24.021333 94.314667-55.936 140.672-92.48 46.336 36.544 98.090667 68.48 140.672 92.48a1527.722667 1527.722667 0 0 0 75.434667 39.765334l-17.002667 40.64-68.096 171.370666 79.317333 31.509334L634.453333 832h181.696l40.170667 101.098667 79.317333-31.509334-67.84-170.666666L767.381333 490.666667h-84.117333l-50.176 120.021333-1.216-0.597333a1441.792 1441.792 0 0 1-65.28-34.624c-37.632-21.205333-80.469333-47.658667-118.954667-76.8 42.56-48.213333 72.469333-105.770667 92.224-152.234667a782.357333 782.357333 0 0 0 25.578667-69.12H661.333333V192z m-200 121.045333c-18.176 42.752-43.776 90.645333-77.333333 128.789334-33.557333-38.144-59.157333-86.037333-77.333333-128.789334A694.805333 694.805333 0 0 1 292.650667 277.333333h182.698666c-3.925333 10.88-8.597333 22.954667-14.016 35.712zM781.909333 746.666667h-113.173333l56.576-135.36L781.909333 746.666667z" p-id="4012"></path></svg>