<?xml version="1.0" standalone="no"?><!DOCTYPE svg PUBLIC "-//W3C//DTD SVG 1.1//EN" "http://www.w3.org/Graphics/SVG/1.1/DTD/svg11.dtd"><svg class="icon" width="64px" height="64.00px" viewBox="0 0 1024 1024" version="1.1" xmlns="http://www.w3.org/2000/svg"><path fill="#bfbfbf" d="M153.6 512c0 197.632 160.768 358.4 358.4 358.4s358.4-160.768 358.4-358.4-160.768-358.4-358.4-358.4-358.4 160.768-358.4 358.4z m54.9888 0A303.7696 303.7696 0 0 1 512 208.5376 303.8208 303.8208 0 0 1 815.4624 512a303.8208 303.8208 0 0 1-303.4112 303.4624A303.8208 303.8208 0 0 1 208.5888 512z m490.7008 21.1968h59.5968c0-140.6976-109.312-255.1808-249.9584-255.1808-140.6976 0-243.8656 114.4832-243.8656 255.1808h59.648c0-107.8272 76.3904-195.584 184.2176-195.584s190.3616 87.7568 190.3616 195.584zM508.928 716.1856a94.208 94.208 0 0 1-94.1056-94.1056c0-41.472 26.9824-76.8 64.3072-89.2928V440.576c0-16.7424 13.3632-30.3104 29.8496-30.3104 16.4352 0 29.7984 13.568 29.7984 30.3104v92.2112a94.3104 94.3104 0 0 1 64.3072 89.2928 94.208 94.208 0 0 1-94.1568 94.1056z m0-128.6144a34.56 34.56 0 0 0 0 68.9664 34.56 34.56 0 0 0 34.56-34.5088 34.56 34.56 0 0 0-34.56-34.4576z"  /></svg>