<?xml version="1.0" standalone="no"?><!DOCTYPE svg PUBLIC "-//W3C//DTD SVG 1.1//EN" "http://www.w3.org/Graphics/SVG/1.1/DTD/svg11.dtd"><svg class="icon" width="64px" height="64.00px" viewBox="0 0 1024 1024" version="1.1" xmlns="http://www.w3.org/2000/svg"><path fill="#bfbfbf" d="M515.4304 194.3552l-88.576-38.2464a36.9664 36.9664 0 0 0-29.2864 67.7888 313.5488 313.5488 0 0 0 40.3968 592.384 36.9664 36.9664 0 0 0 19.2512-71.3728 239.7184 239.7184 0 0 1-22.1696-456.2432l-5.888 13.6192a36.864 36.864 0 0 0 19.5072 48.4352 36.9664 36.9664 0 0 0 48.4352-18.7392l37.5808-89.1904a37.12 37.12 0 0 0-19.2512-48.4352z m322.2016 316.0576A314.1632 314.1632 0 0 0 614.4 201.216a36.9664 36.9664 0 1 0-21.2992 70.7584 239.872 239.872 0 0 1 42.7008 442.368 36.864 36.864 0 1 0-64.6144-35.4304l-50.3296 82.0736a36.7616 36.7616 0 0 0 12.0832 50.9952l81.9712 50.944a37.0176 37.0176 0 1 0 38.2464-62.8224l-11.264-7.0144A314.0608 314.0608 0 0 0 837.632 510.464z"  /></svg>